<svg width="16" height="24" viewBox="0 0 16 24" fill="none" xmlns="http://www.w3.org/2000/svg">
<path d="M14.6662 11.0635L3.98588 0.383412C3.73885 0.136194 3.4091 0 3.05749 0C2.70589 0 2.37613 0.136194 2.12911 0.383412L1.34258 1.16975C0.830781 1.68213 0.830781 2.51491 1.34258 3.02651L10.3111 11.995L1.33263 20.9735C1.08561 21.2207 0.949219 21.5503 0.949219 21.9017C0.949219 22.2535 1.08561 22.583 1.33263 22.8305L2.11916 23.6166C2.36638 23.8638 2.69594 24 3.04754 24C3.39915 24 3.7289 23.8638 3.97593 23.6166L14.6662 12.9267C14.9138 12.6787 15.0498 12.3476 15.049 11.9956C15.0498 11.6422 14.9138 11.3113 14.6662 11.0635Z" fill="white"/>
</svg>
